<?xml version="1.0" standalone="no"?>
<!DOCTYPE svg PUBLIC "-//W3C//DTD SVG 20010904//EN"
 "http://www.w3.org/TR/2001/REC-SVG-20010904/DTD/svg10.dtd">
<svg version="1.0" xmlns="http://www.w3.org/2000/svg"
 width="16.000000pt" height="16.000000pt" viewBox="0 0 16.000000 16.000000"
 preserveAspectRatio="xMidYMid meet">
<metadata>
Created by potrace 1.11, written by Peter Selinger 2001-2013
</metadata>
<g transform="translate(0.000000,16.000000) scale(0.003125,-0.003125)"
fill="#000000" stroke="none">
<path d="M3635 4210 l-769 -5 -58 -82 c-31 -45 -146 -212 -256 -370 -820
-1189 -1063 -1538 -1118 -1609 -183 -236 -443 -402 -696 -445 -66 -11 -68 -12
-68 -40 l0 -30 837 4 c917 3 855 0 1023 61 149 55 344 205 474 366 30 36 150
205 268 375 118 171 291 420 385 555 630 909 834 1204 836 1212 3 14 7 14
-858 8z"/>
<path d="M4485 989 c-120 -175 -124 -180 -181 -209 l-39 -20 136 2 c129 3 139
4 173 29 20 14 59 59 87 100 28 41 80 116 116 167 l64 92 -123 0 -123 0 -110
-161z"/>
<path d="M477 1098 c-20 -31 -187 -330 -187 -335 0 -1 21 -3 48 -3 44 0 48 2
67 38 l20 37 100 3 101 3 23 -41 22 -40 65 0 64 0 -30 48 c-16 26 -67 106
-112 177 -84 130 -84 130 -125 133 -35 3 -44 -1 -56 -20z m103 -185 c0 -1 -25
-3 -55 -3 -30 0 -55 2 -55 5 0 3 12 29 26 57 l26 51 29 -53 c16 -29 29 -55 29
-57z"/>
<path d="M830 940 l0 -180 50 0 50 0 0 180 0 180 -50 0 -50 0 0 -180z"/>
<path d="M1030 940 l0 -180 50 0 50 0 0 60 0 60 37 0 c32 0 46 -8 95 -57 l58
-58 78 -4 77 -3 -73 67 -73 68 31 18 c42 26 66 79 54 120 -19 68 -80 88 -266
89 l-118 0 0 -180z m260 86 c6 -8 10 -25 8 -37 -4 -28 -48 -41 -116 -37 l-47
3 -3 43 -3 42 74 0 c53 0 78 -4 87 -14z"/>
<path d="M1510 940 l0 -180 50 0 50 0 0 60 0 60 120 0 120 0 0 35 0 35 -120 0
-120 0 0 45 0 45 120 0 120 0 0 40 0 40 -170 0 -170 0 0 -180z"/>
<path d="M1912 944 l3 -179 53 -3 52 -3 0 60 0 61 33 0 c24 0 41 -8 63 -31 16
-17 47 -44 68 -60 34 -25 48 -29 105 -29 l66 1 -75 68 c-67 62 -72 69 -53 75
59 19 91 105 57 154 -31 45 -69 55 -227 60 l-147 4 2 -178z m262 80 c20 -19
20 -25 2 -50 -12 -16 -27 -19 -83 -19 l-68 0 -3 43 -3 42 70 0 c50 0 74 -4 85
-16z"/>
<path d="M2455 952 c-49 -92 -91 -173 -93 -179 -2 -9 11 -13 42 -13 43 0 47 2
66 40 l20 40 95 0 95 0 20 -32 c11 -18 21 -37 23 -41 1 -4 30 -7 64 -5 l62 3
-104 169 c-57 93 -110 173 -117 177 -7 5 -29 9 -48 9 l-35 0 -90 -168z m133
-40 c-28 -2 -52 -1 -55 1 -2 3 8 29 23 58 l27 53 27 -54 28 -55 -50 -3z"/>
<path d="M2870 940 l0 -180 45 0 44 0 3 104 3 103 120 -103 c106 -91 124 -104
158 -104 l37 0 0 180 0 180 -45 0 -45 0 0 -106 0 -105 -124 105 c-108 92 -129
106 -160 106 l-36 0 0 -180z"/>
<path d="M3446 1100 c-83 -33 -126 -87 -126 -160 0 -71 39 -122 120 -159 58
-26 180 -28 257 -4 l53 17 0 44 c0 38 -2 43 -17 37 -106 -43 -209 -47 -260 -9
-58 43 -55 110 6 151 27 18 47 23 100 23 36 -1 84 -7 106 -15 56 -20 57 -20
53 27 -3 40 -5 43 -43 54 -64 20 -192 16 -249 -6z"/>
<path d="M3810 940 l0 -180 175 0 175 0 0 40 0 40 -125 0 -125 0 0 30 0 30
125 0 125 0 0 40 0 40 -125 0 -125 0 0 30 0 30 125 0 125 0 0 40 0 40 -175 0
-175 0 0 -180z"/>
</g>
</svg>
